<svg xmlns:rdf="http://www.w3.org/1999/02/22-rdf-syntax-ns#" xmlns="http://www.w3.org/2000/svg" version="1.0" xmlns:cc="http://creativecommons.org/ns#" xmlns:dc="http://purl.org/dc/elements/1.1/" viewBox="0 0 166.15 166.19">
<g transform="translate(-57.525 -146.42)">
<g fill="#1793d1" transform="matrix(.87464 0 0 .87464 14.731 23.409)">
<path fill-rule="evenodd" d="m105.81 16.625c-7.397 18.135-11.858 29.998-20.094 47.594 5.049 5.352 11.247 11.585 21.314 18.625-10.822-4.453-18.203-8.924-23.72-13.563-10.539 21.993-27.052 53.319-60.562 113.53 26.338-15.2 46.754-24.58 65.781-28.15-0.817-3.52-1.281-7.32-1.25-11.28l0.03125-0.84375c0.41792-16.874 9.1957-29.85 19.594-28.969 10.398 0.88104 18.48 15.282 18.062 32.156-0.0786 3.1751-0.43674 6.2296-1.0625 9.0625 18.821 3.6816 39.019 13.032 65 28.031-5.123-9.4318-9.6957-17.934-14.062-26.031-6.8784-5.3312-14.053-12.27-28.688-19.781 10.059 2.6138 17.261 5.6293 22.875 9-44.4-82.672-47.99-93.656-63.22-129.38z" transform="matrix(1.1433,0,0,1.1433,22.92,121.64)"/>
</g>
</g>
</svg>
