<svg xmlns:rdf="http://www.w3.org/1999/02/22-rdf-syntax-ns#" xmlns="http://www.w3.org/2000/svg" height="166.19" width="175.01" version="1.0" xmlns:cc="http://creativecommons.org/ns#" xmlns:dc="http://purl.org/dc/elements/1.1/">
 <g transform="translate(-57.527 -146.43)">
  <g fill="#1793d1" transform="matrix(.87464 0 0 .87464 14.731 23.409)">
   <path d="m105.81 16.625c-7.3969 18.135-11.858 29.998-20.094 47.594 5.0494 5.3523 11.247 11.585 21.312 18.625-10.82-4.453-18.201-8.924-23.718-13.563-10.539 21.993-27.052 53.319-60.562 113.53 26.338-15.2 46.754-24.58 65.781-28.15-0.817-3.52-1.281-7.32-1.25-11.28l0.03125-0.84375c0.41792-16.874 9.1957-29.85 19.594-28.969 10.398 0.88104 18.48 15.282 18.062 32.156-0.0786 3.1751-0.43674 6.2296-1.0625 9.0625 18.821 3.6816 39.019 13.032 65 28.031-5.123-9.4318-9.6957-17.934-14.062-26.031-6.8784-5.3312-14.053-12.27-28.688-19.781 10.059 2.6138 17.261 5.6293 22.875 9-44.4-82.672-47.99-93.656-63.22-129.38z" fill-rule="evenodd" transform="matrix(1.1433 0 0 1.1433 22.92 121.64)"/>
   <path d="m239.84 313.7v-5.2094h-1.946v-0.697h4.6816v0.697h-1.954v5.2094h-0.78162"/>
   <path d="m243.39 313.7v-5.9064h1.1765l1.398 4.182c0.12892 0.38947 0.22293 0.6809 0.28202 0.87429 0.0671-0.21488 0.1719-0.53048 0.31426-0.94681l1.4142-4.1095h1.0516v5.9064h-0.75341v-4.9435l-1.7163 4.9435h-0.70506l-1.7083-5.0281v5.0281h-0.75342"/>
  </g>
 </g>
</svg>
