<svg xmlns:rdf="http://www.w3.org/1999/02/22-rdf-syntax-ns#" xmlns="http://www.w3.org/2000/svg" height="291.25" width="252.23" version="1.0" xmlns:cc="http://creativecommons.org/ns#" xmlns:dc="http://purl.org/dc/elements/1.1/">
<g transform="translate(-13.735 -98.724)">
<g transform="matrix(.87464 0 0 .87464 14.731 23.409)">
<path fill="#1793d1" d="m126.11 0l-126.11 72.812v145.63l126.11 72.81 126.12-72.81v-145.63l-126.12-72.81zm0.03 52.719c15.23 35.729 18.83 46.713 63.22 129.37-5.61-3.37-12.81-6.38-22.87-9 14.63 7.52 21.81 14.45 28.69 19.79 4.36 8.09 8.94 16.59 14.06 26.03-25.98-15-46.18-24.35-65-28.03 0.62-2.84 0.98-5.89 1.06-9.07 0.42-16.87-7.66-31.27-18.06-32.15s-19.18 12.09-19.6 28.96l-0.03 0.85c-0.03 3.96 0.44 7.77 1.25 11.28-19.024 3.58-39.44 12.95-65.778 28.16 33.51-60.21 50.023-91.54 60.558-113.53 5.52 4.63 12.9 9.1 23.72 13.56-10.06-7.04-16.26-13.28-21.31-18.63 8.24-17.594 12.7-29.456 20.09-47.591zm82.22 146.19h4.09v0.61h-1.71v4.55h-0.68v-4.55h-1.7v-0.61zm4.8 0h1.03l1.22 3.65c0.12 0.35 0.2 0.6 0.25 0.77 0.06-0.19 0.15-0.46 0.28-0.83l1.23-3.59h0.92v5.16h-0.66v-4.32l-1.5 4.32h-0.62l-1.49-4.39v4.39h-0.66v-5.16z" transform="matrix(1.1433 0 0 1.1433 -1.1385 86.11)"/>
</g>
</g>
</svg>
