<?xml version="1.0" standalone="no"?>
<!DOCTYPE svg PUBLIC "-//W3C//DTD SVG 20010904//EN"
 "http://www.w3.org/TR/2001/REC-SVG-20010904/DTD/svg10.dtd">
<svg version="1.0" xmlns="http://www.w3.org/2000/svg"
 width="512.000000pt" height="512.000000pt" viewBox="0 0 512.000000 512.000000"
 preserveAspectRatio="xMidYMid meet">
<metadata>
Created by potrace 1.13, written by Peter Selinger 2001-2015
</metadata>
<g transform="translate(0.000000,512.000000) scale(0.100000,-0.100000)"
fill="#000000" stroke="none">
<path d="M2466 3612 c-49 -119 -118 -282 -153 -361 l-64 -145 53 -54 c29 -30
94 -88 143 -129 50 -42 95 -80 100 -85 15 -14 -116 47 -176 83 -30 17 -75 46
-102 65 -26 19 -51 34 -56 34 -5 0 -14 -15 -20 -32 -27 -77 -422 -820 -768
-1446 -74 -134 -133 -245 -131 -247 2 -2 53 23 113 57 290 161 572 283 776
335 l109 28 -7 35 c-14 63 -7 241 11 310 49 184 177 307 295 285 110 -20 208
-149 247 -323 12 -56 15 -105 12 -193 l-5 -118 71 -17 c216 -52 543 -195 839
-366 38 -22 70 -38 72 -36 2 2 -43 91 -101 198 l-105 195 -110 85 c-61 47
-156 113 -212 148 -55 34 -98 62 -95 62 18 0 220 -76 271 -101 l59 -30 -40 73
c-359 659 -625 1194 -818 1645 -58 136 -109 251 -113 255 -4 4 -47 -90 -95
-210z"/>
</g>
</svg>
