<svg xmlns:rdf="http://www.w3.org/1999/02/22-rdf-syntax-ns#" xmlns="http://www.w3.org/2000/svg" height="291.25" width="252.23" version="1.0" xmlns:cc="http://creativecommons.org/ns#" xmlns:dc="http://purl.org/dc/elements/1.1/">
 <g transform="translate(-13.735 -98.724)">
  <g transform="matrix(.87464 0 0 .87464 14.731 23.409)">
   <path fill="#1793d1" d="m143.05 86.11 144.19 83.248v166.5l-144.19 83.248-144.19-83.248 0.0000045-166.5z"/>
   <path d="m143.09 146.38c-8.4571 20.735-13.558 34.297-22.974 54.416 5.7731 6.1195 12.859 13.246 24.367 21.295-12.372-5.0911-20.812-10.202-27.118-15.506-12.051 25.145-30.93 60.964-69.243 129.8 30.113-17.385 53.455-28.102 75.21-32.192-0.93414-4.0177-1.4652-8.3637-1.4292-12.898l0.0357-0.96469c0.47782-19.292 10.514-34.128 22.402-33.121 11.888 1.0073 21.129 17.473 20.651 36.765-0.0899 3.6302-0.49934 7.1225-1.2148 10.361 21.518 4.2093 44.611 14.9 74.317 32.049-5.8573-10.784-11.085-20.504-16.078-29.762-7.8643-6.0954-16.067-14.028-32.799-22.617 11.501 2.9884 19.735 6.4362 26.154 10.29-50.762-94.51-54.873-107.07-72.28-147.92z" fill-rule="evenodd" fill="#fff"/>
   <g fill="#fff" transform="translate(-0.813 5.7338)">
    <path d="m239.84 313.7v-5.2094h-1.946v-0.697h4.6816v0.697h-1.954v5.2094h-0.78162"/>
    <path d="m243.39 313.7v-5.9064h1.1765l1.398 4.182c0.12892 0.38947 0.22293 0.6809 0.28202 0.87429 0.0671-0.21488 0.1719-0.53048 0.31426-0.94681l1.4142-4.1095h1.0516v5.9064h-0.75341v-4.9435l-1.7163 4.9435h-0.70506l-1.7083-5.0281v5.0281h-0.75342"/>
   </g>
  </g>
 </g>
</svg>
