<?xml version="1.0" standalone="no"?>
<!DOCTYPE svg PUBLIC "-//W3C//DTD SVG 20010904//EN"
 "http://www.w3.org/TR/2001/REC-SVG-20010904/DTD/svg10.dtd">
<svg version="1.0" xmlns="http://www.w3.org/2000/svg"
 width="512.000000pt" height="512.000000pt" viewBox="0 0 512.000000 512.000000"
 preserveAspectRatio="xMidYMid meet">
<metadata>
Created by potrace 1.15, written by Peter Selinger 2001-2017
</metadata>
<g transform="translate(0.000000,512.000000) scale(0.100000,-0.100000)"
fill="#000000" stroke="none">
<path d="M2465 3633 c-49 -120 -119 -288 -157 -373 l-69 -155 118 -115 118
-114 -80 43 c-44 23 -104 61 -133 83 -30 22 -54 38 -55 36 -1 -1 -24 -48 -50
-103 -109 -225 -357 -691 -694 -1303 -107 -194 -193 -356 -190 -358 2 -3 60
26 128 64 336 188 620 307 854 359 34 8 40 13 38 34 -14 158 -14 200 0 277 67
352 334 443 480 164 55 -104 70 -182 65 -338 l-4 -131 75 -18 c218 -51 554
-198 850 -372 41 -24 78 -42 82 -41 5 2 -42 97 -104 211 l-112 208 -90 71
c-49 39 -130 97 -179 130 -48 32 -86 58 -82 58 11 0 158 -61 208 -86 27 -14
52 -23 55 -21 2 3 -47 101 -110 219 -372 694 -568 1092 -753 1530 -60 142
-112 257 -115 258 -4 0 -46 -98 -94 -217z"/>
</g>
</svg>
